<?xml version="1.0" encoding="UTF-8"?>
<svg xmlns="http://www.w3.org/2000/svg" xmlns:xlink="http://www.w3.org/1999/xlink" width="15px" height="15px" viewBox="0 0 15 15" version="1.1">
<g id="surface1">
<path style=" stroke:none;fill-rule:nonzero;fill:rgb(0%,0%,0%);fill-opacity:1;" d="M 13.082031 2.34375 C 13.195312 2.199219 13.21875 1.996094 13.136719 1.828125 C 13.054688 1.660156 12.886719 1.550781 12.699219 1.550781 L 10.875 1.550781 C 10.878906 1.21875 10.710938 0.890625 10.433594 0.699219 L 10.574219 0.332031 C 10.628906 0.207031 10.566406 0.0664062 10.441406 0.0195312 C 10.3125 -0.0273438 10.171875 0.0273438 10.125 0.152344 L 9.980469 0.527344 C 9.527344 0.46875 9.082031 0.726562 8.90625 1.167969 L 8.753906 1.550781 L 2.300781 1.550781 C 2.113281 1.550781 1.945312 1.660156 1.863281 1.828125 C 1.78125 1.996094 1.804688 2.199219 1.917969 2.34375 L 7.261719 9.140625 L 7.261719 12.941406 C 7.261719 13.808594 6.550781 14.511719 5.683594 14.511719 L 4.910156 14.511719 C 4.777344 14.511719 4.664062 14.625 4.664062 14.761719 C 4.664062 14.886719 4.777344 15 4.910156 15 L 10.089844 15 C 10.222656 15 10.335938 14.886719 10.335938 14.761719 C 10.335938 14.625 10.222656 14.511719 10.089844 14.511719 L 9.316406 14.511719 C 8.449219 14.511719 7.738281 13.808594 7.738281 12.941406 L 7.738281 9.140625 Z M 8.707031 4.636719 C 8.957031 4.636719 9.074219 4.683594 9.214844 4.738281 C 9.378906 4.808594 9.566406 4.894531 9.917969 4.894531 C 10.230469 4.894531 10.40625 4.828125 10.558594 4.769531 L 7.5 8.660156 L 4.441406 4.769531 C 4.589844 4.828125 4.769531 4.894531 5.082031 4.894531 C 5.433594 4.894531 5.621094 4.808594 5.785156 4.738281 C 5.925781 4.683594 6.035156 4.636719 6.285156 4.636719 C 6.539062 4.636719 6.65625 4.683594 6.796875 4.738281 C 6.960938 4.808594 7.148438 4.894531 7.5 4.894531 C 7.851562 4.894531 8.035156 4.808594 8.199219 4.738281 C 8.34375 4.683594 8.457031 4.636719 8.707031 4.636719 Z M 9.355469 1.339844 C 9.46875 1.066406 9.777344 0.933594 10.050781 1.042969 C 10.265625 1.125 10.394531 1.335938 10.386719 1.550781 L 9.277344 1.550781 Z M 2.300781 2.039062 L 12.699219 2.039062 C 12.699219 2.039062 12.699219 2.042969 12.699219 2.042969 L 11.042969 4.148438 C 10.746094 4.160156 10.574219 4.230469 10.429688 4.292969 C 10.285156 4.359375 10.171875 4.40625 9.917969 4.40625 C 9.667969 4.40625 9.550781 4.359375 9.410156 4.292969 C 9.308594 4.253906 9.207031 4.214844 9.066406 4.175781 L 9.558594 2.925781 C 9.609375 2.800781 9.542969 2.660156 9.421875 2.605469 C 9.300781 2.558594 9.160156 2.621094 9.105469 2.746094 L 8.554688 4.152344 C 8.296875 4.171875 8.144531 4.238281 8.003906 4.292969 C 7.863281 4.359375 7.753906 4.40625 7.5 4.40625 C 7.246094 4.40625 7.128906 4.359375 6.988281 4.292969 C 6.824219 4.222656 6.636719 4.148438 6.285156 4.148438 C 5.933594 4.148438 5.753906 4.222656 5.589844 4.292969 C 5.441406 4.359375 5.332031 4.40625 5.082031 4.40625 C 4.828125 4.40625 4.714844 4.359375 4.570312 4.292969 C 4.425781 4.230469 4.253906 4.160156 3.957031 4.148438 L 2.300781 2.042969 C 2.300781 2.042969 2.300781 2.039062 2.300781 2.039062 Z M 7.988281 14.511719 L 7.011719 14.511719 C 7.214844 14.34375 7.378906 14.144531 7.5 13.910156 C 7.621094 14.144531 7.785156 14.34375 7.988281 14.511719 Z M 7.988281 14.511719 "/>
<path style=" stroke:none;fill-rule:nonzero;fill:rgb(0%,0%,0%);fill-opacity:1;" d="M 8.085938 5.339844 L 7.269531 7.410156 C 7.222656 7.535156 7.289062 7.675781 7.410156 7.730469 C 7.441406 7.738281 7.472656 7.738281 7.5 7.738281 C 7.597656 7.738281 7.6875 7.683594 7.730469 7.589844 L 8.542969 5.511719 C 8.589844 5.390625 8.527344 5.25 8.402344 5.203125 C 8.277344 5.152344 8.136719 5.214844 8.085938 5.339844 Z M 8.085938 5.339844 "/>
</g>
</svg>
